# xmcd
#
# Track frame offsets: 
#        150
#        9997
#        24556
#        41182
#
# Disc length: 2113 seconds
#
# Revision: 0
# Processed by: cddbd v1.5.2PL0 Copyright (c) Steve Scherf et al.
# Submitted via: ExactAudioCopy v0.95b3
#
DISCID=27083f04
DTITLE=Paul McCartney  - Memory Almost Full [Limited Edition] - [CD
DTITLE=2)
DYEAR=1900
DGENRE=
TTITLE0=In Private
TTITLE1=Why So Blue
TTITLE2=222
TTITLE3=Paul Talks About The Music Of Memory Almost Full
EXTD=
EXTT0=
EXTT1=
EXTT2=
EXTT3=
PLAYORDER=
